<svg xmlns="http://www.w3.org/2000/svg" version="1.1" xmlns:xlink="http://www.w3.org/1999/xlink" xmlns:svgjs="http://svgjs.dev/svgjs" width="200" height="53" viewBox="0 0 1500 1682"><g transform="matrix(1,0,0,1,-2.336338785046678,0)"><svg viewBox="0 0 321 360" data-background-color="#f8f1e8" preserveAspectRatio="xMidYMid meet" height="1682" width="1500" xmlns="http://www.w3.org/2000/svg" xmlns:xlink="http://www.w3.org/1999/xlink"><g id="tight-bounds" transform="matrix(1,0,0,1,0.5000234999999975,0)"><svg viewBox="0 0 320 360" height="360" width="320"><g><svg></svg></g><g><svg viewBox="0 0 320 360" height="360" width="320"><g><path transform="translate(-74.99272,-51.79039) scale(4.65793,4.65793)" d="M20.6 59.9l0.8 1-0.4-1.3c-0.1-0.6-0.8 0.1-0.4 0.3M21.5 59.3c0.3 0.5 0.6 1 0.6 1.5 0 0.7 0.6 1 1.1 1.2-0.7-0.8-1.1-3-1.7-2.7M59.9 16.9c1.7 0 3.3-0.2 5.1 0.2 4.4 1.1 8.1 3.3 10.6 6.4l7 11.2c0.3 2.8 0.9 5.9 0.8 9.3 0.7 0 0.6-1 1.4-1.2-0.8 2-1.2 4.5-1.4 7.4-0.5-1.6 0-4 0.1-5.3-0.7 1.1-1.1 0.3-1.1-0.2 0.1-0.8-0.3-0.7-0.6-1-1.1-1-1.8-2.1-2.6-3.8 0.5-1.3 0.6-3.2-1-4.2-0.5-0.3-1.1-0.8-1.4-1.6-0.4-1.1-1.1-2.4-0.9-4.1 0.1-0.5-1.5 1.1-2.4 0.4-3.9-2.7-7.8-5.8-12.5-8.4-2.5 0-4.3-0.9-5.2-2-0.8-1-0.2-2.3 1-2.4 0.7 0 1.5-0.2 2.1 0.2 0.1-0.4 0.5-0.9 1-0.9M50 14.6l0.2 0.1c1 0.2 1.5 1.6 2.6 1.1 0 0.7 0.1 1.4-0.1 1.9-0.3 0.8-1.2 0.8-1.9 0.8-6.7-0.4-10.6 2.4-14.7 4.8-1.1 0.7-2.3 1.2-3.2 2.1-4.3 4-9 7.7-10.1 15.1l-0.9 8.2c-0.1 0.9-1.1 1.8-0.9 2.9l0.7 4.9c-0.7-0.7-1.1 0.2-0.9 0.6 0.1 0.3 0.5 1.3 1.1 0.4 0.8 1.5 1.6 4.4 2.7 5.7 3.4 4 7.8 7.6 11.4 11.2 0.9-0.2 1.6-0.2 1.8-0.8 0.3 0.6-0.3 1.2-0.8 1.3 1.6 1 3.4 1.9 5.8 2.1 3.1 0.2 6 0.7 8.7 1.4 1.4-0.4 2.8-0.6 4.3-0.7 0.5 0 0.8-0.8 1.4-1l0.1-1c0.6 0.9 0.5-0.3 0.1-0.9 0.7 0.6 0.9 1.1 1.2 1.5 0-0.3 0.8-1.4 0.8-0.1l0.2-1.3c0.3-0.2 0.4 1.1 0.7 0.2 0.3-0.9 0.9-0.2 1.5-0.5-0.2 0.4-0.1 1.2 0.6 0.7l0.8-0.7c0.5 1.2 1.3 0.7 1.7 0.5 4.4-2.8 8.8-6.1 13-9.4l-0.1 1.3 0.5-1.6c0.5 0.5 0.9 0.1 1.1-0.2 0.6-1 1.4-2 2.7-2.9-1.6 4.3-3.5 7.7-5.9 10.5l-1 1.2c0 0.7-0.2 1.6-1 1.7-0.4 0.1-1.2-0.2-1.8 0.4-0.3 0.4 0.7 1.2-0.1 0.6-0.7-0.5-1.4 0-2.2 0.2-0.6 0.2 0.4 0.8 0.6 1.2 0.2 0.4 0.4 0.8 0.3 1.3l-1.1-1.2c-1.3 0.7-2.1 2-3.2 3-0.5 0.4-0.3 1.1-0.3 1.7-0.7 0-1.5-0.2-1.9 0.2-0.3 0.4-0.2 1-0.2 1.6-1-0.1-1.1-1.6-2-1.3-0.9 0.2-1.9 0.3-2.7 0.8 0.6 1.2-1 0.5-0.8 0.7-1.5-0.9-2.8-1.6-4.4-1-3.4-1.1-7.6-0.6-10.7-0.2 0-0.5 0.1-1-0.1-1.1-0.2 0.5-0.8 0.3-0.7 0.3-1.9-1.3-3.8-2.1-5.8-3.2-1.8 0.2-3.5-0.7-4-1.2-1.4-1.3-3-0.6-4.3-0.9-2.8-0.7-3.8-3.6-4.1-5.6-0.2-1-1-1.4-1.3-1.3-1.3-4.2-3.3-8-4.9-11.9-0.4-1-0.3-2-0.3-3.1 0.5 0.2 1 0.1 0.9-0.6-0.5-3.3-1.7-5.8-3-8.2 0.7-3.4 0.8-7.4 2.4-10.4 1.4-2.7 4-4.1 5.8-6.4 0.6-0.8 0.6-1.9 1.2-2.6 2-2 4-4.1 6.2-5.9 1-0.8 2.2 0 3.7-0.3 0.5-1.8 2.5-3.4 4.4-2.9 0.8 0.2 2.4-1.9 2.9-2.1 0.8-0.3 0.4 0.8 0.4 1.5 1.9-1.5 4.5-2.3 6.9-3.2" fill="#ff0336" fill-rule="nonzero" stroke="none" stroke-width="1" stroke-linecap="butt" stroke-linejoin="miter" stroke-miterlimit="10" stroke-dasharray="" stroke-dashoffset="0" font-family="none" font-weight="none" font-size="none" text-anchor="none" style="mix-blend-mode: normal" data-fill-palette-color="tertiary"></path></g><g transform="matrix(1,0,0,1,82.02838890449333,90)"><svg viewBox="0 0 155.94322219101335 180" height="180" width="155.94322219101335"><g><svg viewBox="0 0 155.94322219101335 180" height="180" width="155.94322219101335"><g><svg viewBox="0 0 192 221.61912210373458" height="180" width="155.94322219101335"><g transform="matrix(1,0,0,1,0,76.63736806673133)"><svg viewBox="0 0 192 144.98175403700327" height="144.98175403700327" width="192"><g id="textblocktransform"><svg viewBox="0 0 192 144.98175403700327" height="144.98175403700327" width="192" id="textblock"><g><svg viewBox="0 0 192 87.34044616876818" height="87.34044616876818" width="192"><g transform="matrix(1,0,0,1,0,0)"><svg width="192" viewBox="1.95 -34.35 100.67999999999999 45.8" height="87.34044616876818" data-palette-color="#ff0336"><path d="M33.5-16.21L33.5-14.04 30.96-13.79Q30.42-13.77 30.16-13.45 29.91-13.13 29.91-12.74L29.91-12.74 29.91-1.2Q29.91-1.2 28.41-0.7 26.9-0.2 24.51 0.31 22.12 0.81 19.41 0.81L19.41 0.81Q15.23 0.81 11.99-0.63 8.74-2.08 6.51-4.55 4.27-7.03 3.11-10.21 1.95-13.38 1.95-16.85L1.95-16.85Q1.95-22.09 4.14-26.04 6.32-29.98 10.39-32.17 14.45-34.35 20.04-34.35L20.04-34.35Q22.61-34.35 24.78-33.89 26.95-33.42 29.03-32.86L29.03-32.86 29.86-32.64 29.86-24.56 26.86-24.56 26.05-29.05Q25.98-29.49 25.68-29.8 25.39-30.1 25.05-30.25L25.05-30.25Q24.95-30.27 24.76-30.37L24.76-30.37Q24-30.71 22.72-31.13 21.44-31.54 19.85-31.54L19.85-31.54Q16.26-31.54 13.5-29.87 10.74-28.2 9.19-24.98 7.64-21.75 7.64-17.09L7.64-17.09Q7.64-9.89 11.12-5.94 14.6-2 20.46-2L20.46-2Q22.12-2 23.4-2.38 24.68-2.76 24.85-2.76L24.85-2.76 24.85-12.74Q24.85-13.13 24.6-13.45 24.34-13.77 23.8-13.79L23.8-13.79 20.46-14.04 20.46-16.21 33.5-16.21ZM60.74-24.1L60.74-22.14 58.13-21.85 48.53 1.54Q48.22 2.34 47.54 3.85 46.87 5.35 45.96 6.92 45.04 8.5 43.99 9.55L43.99 9.55Q43.09 10.45 42 10.95 40.92 11.45 39.65 11.45L39.65 11.45Q37.86 11.45 36.92 10.58 35.98 9.72 35.98 8.59L35.98 8.59Q35.98 6.93 37.6 5.59L37.6 5.59 42.28 7.74Q43.11 6.91 43.94 5.49 44.77 4.08 45.44 2.56 46.12 1.05 46.48-0.05L46.48-0.05 37.99-21.85 35.23-22.14 35.23-24.1 46.29-24.1 46.29-22.14 43.89-22Q43.09-21.92 43.09-21.19L43.09-21.19Q43.09-21 43.14-20.9L43.14-20.9 48.95-6.15 54.88-20.9Q54.95-21.04 54.95-21.22L54.95-21.22Q54.95-21.95 54.2-22L54.2-22 51.83-22.14 51.83-24.1 60.74-24.1ZM102.63-1.95L102.63 0 91.43 0 91.43-1.95 93.53-2.1Q94.58-2.17 94.58-3.2L94.58-3.2 94.58-15.94Q94.58-18.26 93.61-19.65 92.65-21.04 90.13-21.04L90.13-21.04Q88.89-21.04 87.41-20.65 85.93-20.26 84.79-19.65L84.79-19.65 84.79-3.2Q84.79-2.17 85.83-2.1L85.83-2.1 87.93-1.95 87.93 0 76.97 0 76.97-1.95 79.07-2.1Q80.12-2.17 80.12-3.2L80.12-3.2 80.12-16.26Q80.12-18.38 79.12-19.71 78.12-21.04 75.73-21.04L75.73-21.04Q74.31-21.04 72.77-20.57 71.24-20.09 70.38-19.6L70.38-19.6 70.38-3.2Q70.38-2.17 71.43-2.1L71.43-2.1 73.53-1.95 73.53 0 62.23 0 62.23-1.95 64.67-2.1Q65.72-2.17 65.72-3.2L65.72-3.2 65.72-20.56 62.28-20.56 62.28-22.19 68.33-24.1 70.38-24.1 70.38-21.61Q71.5-22.29 72.91-23 74.31-23.71 75.78-24.21 77.24-24.71 78.54-24.71L78.54-24.71Q80.71-24.71 82.05-23.6 83.39-22.49 84.03-21.24L84.03-21.24Q85.03-21.88 86.57-22.69 88.11-23.51 89.75-24.11 91.4-24.71 92.72-24.71L92.72-24.71Q95.36-24.71 96.75-23.5 98.14-22.29 98.65-20.52 99.16-18.75 99.16-17.04L99.16-17.04 99.16-3.2Q99.16-2.73 99.47-2.44 99.78-2.15 100.21-2.1L100.21-2.1 102.63-1.95Z" opacity="1" transform="matrix(1,0,0,1,0,0)" fill="#ff0336" class="wordmark-text-0" data-fill-palette-color="primary" id="text-0"></path></svg></g></svg></g><g transform="matrix(1,0,0,1,0,100.08551343549951)"><svg viewBox="0 0 192 44.89624060150376" height="44.89624060150376" width="192"><g transform="matrix(1,0,0,1,0,0)"><svg width="192" viewBox="2.55 -34.55 199.48999999999998 46.65" height="44.89624060150376" data-palette-color="#ff0336"><path d="M31.05-33.15L30.35-29.3Q28.15-29.75 25.68-30.15 23.2-30.55 19.95-30.65L19.95-30.65Q16.65-30.6 14.25-29.65 11.85-28.7 10.33-26.93 8.8-25.15 8.05-22.7 7.3-20.25 7.3-17.3L7.3-17.3Q7.3-13.5 8.28-10.8 9.25-8.1 10.98-6.38 12.7-4.65 15-3.85 17.3-3.05 19.95-3.05L19.95-3.05Q21.65-3.05 23.03-3.25 24.4-3.45 25.43-3.73 26.45-4 27.3-4.35L27.3-4.35 27.3-13.5 21.05-13.5 21.05-17.25 31.55-17.25 31.55-2.3Q29.8-1.15 26.73-0.23 23.65 0.7 19.95 0.65L19.95 0.65Q16.55 0.65 13.43-0.15 10.3-0.95 7.88-2.98 5.45-5 4-8.5 2.55-12 2.55-17.35L2.55-17.35Q2.55-21.7 3.9-24.93 5.25-28.15 7.58-30.28 9.9-32.4 12.98-33.48 16.05-34.55 19.5-34.55L19.5-34.55Q21.75-34.55 23.85-34.33 25.95-34.1 27.7-33.83 29.45-33.55 31.05-33.15L31.05-33.15ZM44.4-0.65L34.35-25.15 38.6-25.15 43.3-13.8Q44-12.15 44.57-10.5 45.15-8.85 45.6-7.55L45.6-7.55Q46.15-6 46.55-4.55L46.55-4.55 46.6-4.55Q47.05-6 47.6-7.55L47.6-7.55Q48.05-8.85 48.65-10.5 49.25-12.15 49.9-13.8L49.9-13.8 54.25-25.15 58.45-25.15 46.55 4.85Q45.85 6.7 44.72 8.05 43.6 9.4 42.55 10.3L42.55 10.3Q41.3 11.35 39.95 12.1L39.95 12.1 38 8.65Q39.05 8.15 39.95 7.4L39.95 7.4Q40.75 6.75 41.55 5.78 42.35 4.8 42.85 3.45L42.85 3.45 44.4-0.65ZM62.5 0L62.5-20.6Q62.5-22.3 62.2-24.7L62.2-24.7 65.95-25.2 66.5-22.05Q67.84-23.05 69.15-23.8 70.45-24.55 71.95-25.1 73.45-25.65 75-25.65L75-25.65Q77.5-25.65 78.95-24.78 80.4-23.9 81.09-21.8L81.09-21.8Q83.15-23.25 85.37-24.45 87.59-25.65 90-25.65L90-25.65Q91.84-25.65 93.15-25.18 94.45-24.7 95.25-23.6 96.05-22.5 96.4-20.7 96.75-18.9 96.75-16.2L96.75-16.2 96.75 0 92.75 0 92.75-15.75Q92.75-17.25 92.7-18.43 92.65-19.6 92.34-20.43 92.05-21.25 91.37-21.7 90.7-22.15 89.45-22.15L89.45-22.15Q88.3-22.15 87.27-21.83 86.25-21.5 85.15-20.9 84.05-20.3 81.75-18.45L81.75-18.45 81.75 0 77.75 0 77.75-15.75Q77.75-17.25 77.7-18.43 77.65-19.6 77.34-20.43 77.05-21.25 76.37-21.7 75.7-22.15 74.45-22.15L74.45-22.15Q73.15-22.15 71.75-21.6 70.34-21.05 69.09-20.3 67.84-19.55 66.5-18.55L66.5-18.55 66.5 0 62.5 0ZM103.49 0L105.29-34.1 110.64-34.1 118.34-13.8Q118.99-12.05 119.54-10.58 120.09-9.1 120.49-7.95L120.49-7.95Q120.99-6.65 121.34-5.55L121.34-5.55 121.44-5.55Q121.74-6.65 122.19-7.95L122.19-7.95Q122.59-9.1 123.09-10.58 123.59-12.05 124.29-13.8L124.29-13.8 132.14-34.1 137.49-34.1 139.24 0 134.99 0 134.14-18.75Q134.04-21.2 133.99-22.9 133.94-24.6 133.94-25.7L133.94-25.7 133.94-27.8 133.84-27.8Q133.54-27.05 133.09-25.75L133.09-25.75Q132.69-24.65 132.07-22.93 131.44-21.2 130.54-18.75L130.54-18.75 123.49 0 119.24 0 112.14-18.75Q111.19-21.15 110.59-22.88 109.99-24.6 109.59-25.7L109.59-25.7Q109.14-27 108.89-27.8L108.89-27.8 108.79-27.8Q108.84-27 108.89-25.7L108.89-25.7Q108.94-23.6 108.74-18.75L108.74-18.75 107.74 0 103.49 0ZM160.44-5.85L160.44-11.55Q159.44-11.5 158.54-11.45 157.64-11.4 156.77-11.33 155.89-11.25 155.19-11.15L155.19-11.15Q151.59-10.7 150.09-9.58 148.59-8.45 148.59-6.35L148.59-6.35Q148.59-4.6 149.67-3.73 150.74-2.85 152.49-2.85L152.49-2.85Q154.89-2.85 156.77-3.68 158.64-4.5 160.44-5.85L160.44-5.85ZM160.89 0.4L160.39-2.35Q158.04-1 156.02-0.18 153.99 0.65 151.64 0.65L151.64 0.65Q148.29 0.65 146.32-0.98 144.34-2.6 144.34-6.35L144.34-6.35Q144.34-8.3 145.34-9.75 146.34-11.2 147.97-12.18 149.59-13.15 151.64-13.7 153.69-14.25 155.84-14.4L155.84-14.4Q156.74-14.5 158.19-14.58 159.64-14.65 160.44-14.7L160.44-14.7Q160.44-16.45 160.34-17.82 160.24-19.2 159.74-20.18 159.24-21.15 158.27-21.65 157.29-22.15 155.49-22.15L155.49-22.15Q154.04-22.15 152.69-21.98 151.34-21.8 150.29-21.6L150.29-21.6Q149.04-21.35 147.99-21.05L147.99-21.05 147.19-24.5Q148.44-24.8 149.89-25.05L149.89-25.05Q151.14-25.3 152.79-25.48 154.44-25.65 156.34-25.65L156.34-25.65Q158.89-25.65 160.47-24.9 162.04-24.15 162.92-22.88 163.79-21.6 164.12-19.98 164.44-18.35 164.44-16.55L164.44-16.55 164.44-4.55Q164.44-3.85 164.47-3.08 164.49-2.3 164.57-1.55 164.64-0.8 164.74 0L164.74 0 160.89 0.4ZM171.54 0L171.54-21.1Q171.54-22.25 171.29-24.7L171.29-24.7 174.99-25.2 175.39-21.55 175.44-21.55Q176.34-22.7 177.19-23.55 178.04-24.4 178.96-25.03 179.89-25.65 180.74-25.65L180.74-25.65Q181.89-25.7 183.94-25.4L183.94-25.4 183.04-21.55Q181.39-21.85 180.74-21.8L180.74-21.8Q179.89-21.8 178.94-21 177.99-20.2 177.29-19.3L177.29-19.3Q176.39-18.2 175.54-16.8L175.54-16.8 175.54 0 171.54 0ZM190.19-32.15L194.19-32.65 194.19-25.15 201.44-25.15 201.44-21.9 194.19-21.9 194.19-8.55Q194.19-6.9 194.26-5.8 194.34-4.7 194.59-4.05 194.84-3.4 195.29-3.13 195.74-2.85 196.44-2.85L196.44-2.85Q198.34-2.9 200.84-4.25L200.84-4.25 202.04-1.2Q200.39-0.1 198.96 0.28 197.54 0.65 196.14 0.65L196.14 0.65Q192.84 0.65 191.51-1.23 190.19-3.1 190.19-7.45L190.19-7.45 190.19-21.9 185.59-21.9 185.59-25.15 190.19-25.15 190.19-32.15Z" opacity="1" transform="matrix(1,0,0,1,0,0)" fill="#ff0336" class="slogan-text-1" data-fill-palette-color="secondary" id="text-1"></path></svg></g></svg></g></svg></g></svg></g><g transform="matrix(1,0,0,1,36.672,0)"><svg viewBox="0 0 118.656 63.892300799999994" height="63.892300799999994" width="118.656"><g><svg xmlns="http://www.w3.org/2000/svg" xmlns:xlink="http://www.w3.org/1999/xlink" version="1.1" x="0" y="0" viewBox="5 25.769 90 48.461999999999996" enable-background="new 0 0 100 100" xml:space="preserve" height="63.892300799999994" width="118.656" class="icon-icon-0" data-fill-palette-color="accent" id="icon-0"><g fill="#ff0336" data-fill-palette-color="accent"><rect x="5" y="43.077" fill="#ff0336" width="3.462" height="13.846" data-fill-palette-color="accent"></rect><rect x="11.923" y="32.692" fill="#ff0336" width="3.462" height="34.615" data-fill-palette-color="accent"></rect><rect x="18.846" y="25.769" fill="#ff0336" width="6.924" height="48.462" data-fill-palette-color="accent"></rect><rect x="29.23" y="46.539" fill="#ff0336" width="41.539" height="6.923" data-fill-palette-color="accent"></rect><rect x="91.538" y="43.077" fill="#ff0336" width="3.462" height="13.846" data-fill-palette-color="accent"></rect><rect x="84.615" y="32.692" fill="#ff0336" width="3.462" height="34.615" data-fill-palette-color="accent"></rect><rect x="74.23" y="25.769" fill="#ff0336" width="6.924" height="48.462" data-fill-palette-color="accent"></rect></g></svg></g></svg></g><g></g></svg></g></svg></g></svg></g></svg></g><defs></defs></svg><rect width="320" height="360" fill="none" stroke="none" visibility="hidden"></rect></g></svg></g></svg>